<svg width="171" height="36" viewBox="0 0 171 36" fill="none" xmlns="http://www.w3.org/2000/svg">
<path fill-rule="evenodd" clip-rule="evenodd" d="M27.8333 18C27.8333 25.0877 22.0877 30.8333 15 30.8333C7.91234 30.8333 2.16666 25.0877 2.16666 18C2.16666 10.9123 7.91234 5.16666 15 5.16666C22.0877 5.16666 27.8333 10.9123 27.8333 18ZM30 18C30 26.2843 23.2843 33 15 33C6.71573 33 0 26.2843 0 18C0 9.71573 6.71573 3 15 3C23.2843 3 30 9.71573 30 18ZM23.2759 11.2759C23.2759 12.1329 22.5812 12.8276 21.7242 12.8276C20.8672 12.8276 20.1725 12.1329 20.1725 11.2759C20.1725 10.4189 20.8672 9.72418 21.7242 9.72418C22.5812 9.72418 23.2759 10.4189 23.2759 11.2759ZM10.4879 19.209C11.1556 21.7009 13.717 23.1797 16.2089 22.512C18.7008 21.8443 20.1796 19.2829 19.5119 16.791C18.8442 14.2991 16.2828 12.8203 13.7909 13.488C11.299 14.1557 9.82015 16.7171 10.4879 19.209ZM8.39503 19.7698C9.37244 23.4175 13.1219 25.5823 16.7696 24.6049C20.4174 23.6274 22.5821 19.878 21.6047 16.2302C20.6273 12.5825 16.8779 10.4177 13.2301 11.3952C9.58236 12.3726 7.41762 16.122 8.39503 19.7698Z" fill="url(#paint0_linear_120_1360)"/>
<path d="M46.7369 28.3958C45.2101 28.3958 43.8623 28.1225 42.6936 27.5759C41.5249 27.0292 40.6107 26.247 39.951 25.2291C39.2912 24.2112 38.9613 22.9859 38.9613 21.5533V20.7616H42.6371V21.5533C42.6371 22.7409 43.0047 23.6362 43.7398 24.2394C44.475 24.8238 45.474 25.116 46.7369 25.116C48.0187 25.116 48.9707 24.8615 49.5927 24.3525C50.2336 23.8436 50.5541 23.1933 50.5541 22.4016C50.5541 21.8549 50.3938 21.4119 50.0734 21.0727C49.7718 20.7334 49.3194 20.46 48.7162 20.2527C48.1318 20.0265 47.4155 19.8191 46.5673 19.6306L45.917 19.4893C44.5598 19.1877 43.3911 18.8107 42.4109 18.3583C41.4495 17.887 40.705 17.2744 40.1772 16.5204C39.6682 15.7664 39.4137 14.7862 39.4137 13.5798C39.4137 12.3734 39.6965 11.3461 40.262 10.4978C40.8463 9.63074 41.6569 8.97099 42.6936 8.5186C43.7492 8.04735 44.9839 7.81172 46.3976 7.81172C47.8114 7.81172 49.0649 8.05677 50.1582 8.54687C51.2704 9.01812 52.1374 9.73442 52.7595 10.6958C53.4004 11.6383 53.7208 12.8258 53.7208 14.2584V15.1066H50.0451V14.2584C50.0451 13.5044 49.8943 12.9012 49.5927 12.4488C49.31 11.9776 48.8953 11.6383 48.3486 11.4309C47.802 11.2047 47.1516 11.0916 46.3976 11.0916C45.2666 11.0916 44.4278 11.3084 43.8812 11.7419C43.3534 12.1566 43.0895 12.7316 43.0895 13.4667C43.0895 13.9568 43.212 14.3715 43.4571 14.7108C43.721 15.0501 44.1074 15.3328 44.6163 15.559C45.1253 15.7852 45.7756 15.9832 46.5673 16.1528L47.2176 16.2942C48.6314 16.5958 49.8566 16.9822 50.8934 17.4535C51.9489 17.9247 52.7689 18.5468 53.3533 19.3196C53.9376 20.0925 54.2298 21.0821 54.2298 22.2885C54.2298 23.4949 53.9188 24.5599 53.2967 25.4835C52.6935 26.3883 51.8264 27.1046 50.6954 27.6324C49.5833 28.1414 48.2638 28.3958 46.7369 28.3958ZM56.2782 28V13.9757H59.7843V15.8135H60.2932C60.5194 15.3234 60.9435 14.8616 61.5656 14.428C62.1876 13.9757 63.1301 13.7495 64.3931 13.7495C65.4864 13.7495 66.4383 14.0039 67.2488 14.5129C68.0782 15.003 68.7191 15.691 69.1715 16.5769C69.6239 17.444 69.8501 18.4619 69.8501 19.6306V28H66.2875V19.9134C66.2875 18.8578 66.0236 18.0661 65.4958 17.5383C64.9868 17.0105 64.2517 16.7466 63.2903 16.7466C62.1971 16.7466 61.3488 17.1142 60.7456 17.8493C60.1424 18.5656 59.8408 19.5741 59.8408 20.8747V28H56.2782ZM77.2076 28.3958C76.2085 28.3958 75.3131 28.2262 74.5214 27.8867C73.7486 27.5275 73.1389 26.9535 72.6913 26.1648C72.2437 25.3761 72.0199 24.4035 72.0199 23.247V14.4978H68.7696V13.9757H70.672V9.66171H74.5068V13.9757H77.4116V14.4978H74.5068V23.3155C74.5068 24.2929 74.7018 25.0473 75.0917 25.5787C75.5004 26.0914 76.0964 26.3478 76.8796 26.3478C77.1839 26.3478 77.4713 26.3127 77.7416 26.2425C78.0308 26.1724 78.3076 26.0651 78.5714 25.9207L79.4114 28.0477C78.8536 28.3587 78.2796 28.5877 77.6893 28.7346C77.099 28.8814 76.4729 28.9549 75.811 28.9549C75.811 28.9549 75.4774 28.9586 75.2076 28.3958H77.2076ZM86.3422 28.3958C85.3101 28.3958 84.4156 28.211 83.6586 27.8415C82.9016 27.472 82.3141 26.9312 81.896 26.2192C81.4871 25.5071 81.2826 24.6594 81.2826 23.676V14.4978H84.6703V23.2804C84.6703 24.2355 84.9106 24.9389 85.3912 25.3906C85.8719 25.8423 86.4776 26.0681 87.2082 26.0681C88.093 26.0681 88.7982 25.7942 89.3237 25.2464C89.8672 24.6986 90.139 23.9679 90.139 23.0545V14.4978H93.5267V23.247C93.5267 24.4035 93.3028 25.3761 92.8553 26.1648C92.4077 26.9535 91.7981 27.5275 91.0262 27.8867C90.2534 28.2262 89.3589 28.3958 88.3422 28.3958Z" fill="black"/>
<defs>
<linearGradient id="paint0_linear_120_1360" x1="26.612" y1="5.20593" x2="4.19341" y2="32.1096" gradientUnits="userSpaceOnUse">
<stop stop-color="#FF8A00"/>
<stop offset="1" stop-color="#E52E71"/>
</linearGradient>
</defs>
</svg>
